<svg xmlns="http://www.w3.org/2000/svg" viewBox="0 0 6756.34 4784"><defs><style>.cls-1{isolation:isolate;}.cls-2{fill:#8fcc8f;}.cls-3{fill:#fff;}.cls-4{fill:#fec;}.cls-5{fill:#efcaa6;}.cls-6{fill:#e0a879;}.cls-7{fill:#7c5a4d;}.cls-8{fill:#98daf4;}.cls-9{fill:#b8f0ff;}.cls-10{fill:#d8d8d8;}.cls-11{fill:#cacbcc;}.cls-12{fill:#f49aad;}.cls-13{fill:#ed91ab;}.cls-14{fill:#ce6e84;}.cls-15{fill:#6cc2dd;}.cls-16{fill:#cee5d0;}.cls-17{fill:#a0735f;}.cls-18{mix-blend-mode:multiply;opacity:0.34;}.cls-19{fill:#e2e2e2;}</style></defs><g class="cls-1"><g id="Слой_1" data-name="Слой 1"><path class="cls-2" d="M4844.82,3809.59c62.59-281.07,47.91-429.34,186.55-338s353.55-303.13,394.08-362.78,113.66-60,197.69,37.36,262.07-362.85,394.49-299.17,45.61,135.16,147.45,151.37,398.9-311.88,577.28-125.31-298,305.33-340.44,334.07-43.45,76.74.36,147.31,15.8,200.29-115.95,197.5-280.31-35.39-281.6,28.27,173.18,207.47-132,257.82-228.67,120.7-270.68,200.12-73.22,204.82-256.95,143.6S4844.82,3809.59,4844.82,3809.59Z" transform="translate(-25.83 -33)"/><path class="cls-3" d="M5195.48,3833.68a3.93,3.93,0,0,1-2.65-6.84c102-92.85,247.13-199.63,431.25-317.38,147.22-94.14,319.6-195.48,512.36-301.2,328.16-180,605.33-312,608.09-313.33a3.93,3.93,0,1,1,3.38,7.1c-2.76,1.31-279.76,133.26-607.73,313.14-192.59,105.63-364.82,206.88-511.88,300.93-183.74,117.5-328.47,224-430.18,316.56A3.93,3.93,0,0,1,5195.48,3833.68Z" transform="translate(-25.83 -33)"/><path class="cls-3" d="M6405.69,3448.58a4.19,4.19,0,0,1-.5,0l-558-70,160.46-513.76a3.93,3.93,0,1,1,7.5,2.35l-157.66,504.78,548.73,68.86a3.93,3.93,0,0,1-.48,7.83Z" transform="translate(-25.83 -33)"/><path class="cls-3" d="M6035,3768.08a4.25,4.25,0,0,1-.71-.06l-619.25-112.71,106.58-572.87a3.93,3.93,0,0,1,7.73,1.43L5424.24,3649l611.5,111.3a3.93,3.93,0,0,1-.7,7.79Z" transform="translate(-25.83 -33)"/><path class="cls-2" d="M2109.35,2821.46c-40.65-260.08-18.58-394.49-150.41-319.22s-304.8-297.24-338.28-354-100.19-61.38-182.55,22.51-217.84-346.36-342.38-296-49.53,120.64-143.38,129.47S606.68,1696.29,433,1856.07s254,296,291,324.69,35.15,72.56-8.95,134.37-26.13,181.8,94.23,187,257.8-15.89,255.25,42.26-170.13,179.15,105.3,242.94,201.55,123.49,235.24,198.41,54.81,191.14,226,146S2109.35,2821.46,2109.35,2821.46Z" transform="translate(-25.83 -33)"/><path class="cls-3" d="M1788.27,2823.27a3.91,3.91,0,0,1-2.83-1.2c-87.35-90.38-213.22-196-374.09-314.06-128.78-94.47-280.13-197-449.85-304.76-289-183.5-534.35-320.28-536.79-321.64a3.93,3.93,0,1,1,3.82-6.87C431,1876.1,676.47,2013,965.68,2196.59c169.87,107.85,321.37,210.49,450.3,305.07,161.24,118.29,287.45,224.25,375.11,315a3.93,3.93,0,0,1-2.82,6.66Z" transform="translate(-25.83 -33)"/><path class="cls-3" d="M701.66,2402.08a3.93,3.93,0,0,1-.24-7.85l509.31-31.65-114.2-469.35a3.93,3.93,0,1,1,7.64-1.86l116.42,478.47-518.68,32.23Z" transform="translate(-25.83 -33)"/><path class="cls-3" d="M1026.17,2714.29a3.93,3.93,0,0,1-.44-7.83l564-65.72-62.92-522.41a3.93,3.93,0,1,1,7.8-.94l63.86,530.25-571.88,66.62A3.44,3.44,0,0,1,1026.17,2714.29Z" transform="translate(-25.83 -33)"/><path class="cls-4" d="M5540.75,4493.94H1087.17C1093.38,3269.41,2088,2278.65,3314,2278.65S5534.54,3269.41,5540.75,4493.94Z" transform="translate(-25.83 -33)"/><rect class="cls-5" x="3112.17" y="2184.92" width="314.56" height="517.39"/><path class="cls-6" d="M3452.57,2217.92v227.14c-50,20.36-102.73,31.56-157.28,31.56S3188,2465.42,3138,2445.06V2217.92Z" transform="translate(-25.83 -33)"/><path class="cls-5" d="M3866.11,1661.26c0,353.93-255.57,727.91-570.82,727.91s-570.83-374-570.83-727.91,255.57-640.85,570.83-640.85S3866.11,1307.33,3866.11,1661.26Z" transform="translate(-25.83 -33)"/><path class="cls-7" d="M3109.86,1053.05S2605,1852.52,2699.28,1696C2699.45,1695.74,2622.61,958.74,3109.86,1053.05Z" transform="translate(-25.83 -33)"/><path class="cls-7" d="M2980,892.88c0-185.82.68-585.11,427.51-564.75,266.49,12.71,470,86.23,825.87-38.87S4632.93,33,4632.93,33s-164,448.16-607.26,666.77-799.16,191.9-897.53,191.9S2980,892.88,2980,892.88Z" transform="translate(-25.83 -33)"/><ellipse class="cls-5" cx="2683.3" cy="1628.67" rx="119.83" ry="196.75"/><path class="cls-3" d="M3856.3,4354.27h-1122a12.07,12.07,0,0,1-11.42-9.84L2557.6,3332.6c-56.72-347.28,124.58-673.8,411.34-673.8h652.69c286.76,0,468.06,326.52,411.34,673.8L3867.72,4344.43A12.07,12.07,0,0,1,3856.3,4354.27Z" transform="translate(-25.83 -33)"/><polygon class="cls-8" points="3806.09 2693.81 2732.82 2693.81 2732.8 2693.83 2709.36 2712.01 2709.35 2712.03 3829.57 2712.03 3806.09 2693.81"/><polygon class="cls-8" points="3908.16 2798.26 2630.74 2798.26 2630.7 2798.33 2618.56 2816.39 2618.5 2816.47 3920.41 2816.47 3908.16 2798.26"/><polygon class="cls-8" points="3965.48 2902.71 2573.43 2902.71 2573.26 2903.12 2566.14 2920.92 3972.77 2920.92 3965.48 2902.71"/><polygon class="cls-8" points="3998.97 3007.16 2539.93 3007.16 2539.91 3007.29 2536.05 3025.03 2535.97 3025.37 4002.93 3025.37 3998.97 3007.16"/><polygon class="cls-8" points="4015.08 3111.6 2523.83 3111.6 2523.78 3112.34 2522.6 3129.82 4016.31 3129.82 4015.08 3111.6"/><polygon class="cls-8" points="4016.28 3216.05 2522.63 3216.05 2522.64 3216.2 2523.87 3234.27 4015.04 3234.27 4016.28 3216.05"/><polygon class="cls-9" points="4003.72 3320.5 2535.18 3320.5 2538.16 3338.72 4000.75 3338.72 4003.72 3320.5"/><path class="cls-10" d="M4213.91,3565.72v883c0,116.56-95.36,211.94-211.93,211.94H2588.59c-75.36,0-141.87-39.87-179.45-99.56h0a210.23,210.23,0,0,1-32.47-112.38v-883c0-116.55,95.36-211.93,211.93-211.93H4002a209.43,209.43,0,0,1,25.93,1.6C4132.37,3368.26,4213.91,3457.94,4213.91,3565.72Z" transform="translate(-25.83 -33)"/><circle class="cls-11" cx="3269.45" cy="3974.22" r="179.96"/><circle class="cls-3" cx="3269.45" cy="3974.22" r="144.8"/><rect class="cls-2" x="1060.91" y="4627.33" width="4454.5" height="156.67" rx="12"/><path class="cls-12" d="M2175.37,2072.8c-38.26,12.12-44.1,72.26-13,134.32q3.11,6.23,6.31,12.22-5.72-3.69-11.64-7.32c-59.21-36.22-119.62-35.5-134.94,1.6s28.52,79.45,97.91,94.57c62.61,13.65,117.91,14.39,131.89,2.65a.27.27,0,0,1,.08-.07l.38-.34.37-.35.07-.08c12.89-12.93,16.83-68.1,8.53-131.64C2252.12,2108,2213.64,2060.68,2175.37,2072.8Z" transform="translate(-25.83 -33)"/><path class="cls-12" d="M4750.45,3088.19c-23.92-32.24-82.68-18.18-131.25,31.4q-4.86,5-9.5,9.94,1.64-6.6,3.14-13.38c15-67.78-5.37-124.67-45.44-127.08s-65.84,52.83-57.56,123.36c7.48,63.64,24.77,116.17,40.43,125.57l.09.06.45.24.45.24.09,0c16.43,8,69.87-6.25,127.25-34.77C4742.19,3172.19,4774.36,3120.43,4750.45,3088.19Z" transform="translate(-25.83 -33)"/><path class="cls-12" d="M4664.21,1147.38c-23.91-32.24-82.67-18.18-131.24,31.4q-4.86,5-9.5,10,1.64-6.6,3.14-13.39c15-67.77-5.37-124.67-45.44-127.07s-65.84,52.82-57.56,123.35c7.48,63.65,24.77,116.18,40.43,125.57l.09.06.45.25a4.73,4.73,0,0,0,.45.23l.09,0c16.43,8,69.87-6.25,127.25-34.78C4656,1231.39,4688.13,1179.62,4664.21,1147.38Z" transform="translate(-25.83 -33)"/><path class="cls-12" d="M2132,549.63c-40,3.55-58.69,61-41.78,128.32q1.7,6.75,3.52,13.29-4.77-4.83-9.78-9.66C2034,633.41,1974.86,621,1951.88,654s10.65,83.73,75.12,113.51c58.18,26.87,112,39.57,128.2,31.12l.09-.05.45-.25a4.92,4.92,0,0,0,.43-.26l.09-.06c15.39-9.84,31.17-62.84,36.82-126.67C2199.33,600.55,2172,546.08,2132,549.63Z" transform="translate(-25.83 -33)"/><rect class="cls-13" x="2902.94" y="857.64" width="334.07" height="193.93" rx="64.11" transform="translate(-162.57 691.43) rotate(-13.17)"/><path class="cls-7" d="M3888.43,1279.1c-153.8-348-566-462.7-908.09-194.18,0,0,712.55,790.51,950.6,895C3954.41,1985.59,3985.59,1498.93,3888.43,1279.1Z" transform="translate(-25.83 -33)"/><path class="cls-7" d="M3063.17,1713.13a247.21,247.21,0,0,1-48.18-4.8c-43.41-8.62-72-25.77-73.2-26.49a15.06,15.06,0,0,1,15.6-25.77h0c.25.15,26.05,15.47,64.54,22.92,50.74,9.82,98.66,2,142.43-23.09a15.06,15.06,0,1,1,15,26.12A231.58,231.58,0,0,1,3063.17,1713.13Z" transform="translate(-25.83 -33)"/><path class="cls-7" d="M2949,1764.69a13.76,13.76,0,0,1-11.11-21.84l45.89-63.12a13.76,13.76,0,0,1,22.25,16.18L2960.12,1759A13.74,13.74,0,0,1,2949,1764.69Z" transform="translate(-25.83 -33)"/><path class="cls-7" d="M3070.45,1786.55a13.76,13.76,0,0,1-13.76-13.71l-.18-74.8a13.75,13.75,0,0,1,13.71-13.79h0A13.75,13.75,0,0,1,3084,1698l.19,74.8a13.74,13.74,0,0,1-13.72,13.78Z" transform="translate(-25.83 -33)"/><path class="cls-7" d="M3194.34,1764.69a13.76,13.76,0,0,1-11.6-6.34l-45.13-70.59a13.75,13.75,0,0,1,23.18-14.81l45.13,70.58a13.75,13.75,0,0,1-11.58,21.16Z" transform="translate(-25.83 -33)"/><path class="cls-14" d="M3289.36,2192.5c-68.07,0-114.73-38.74-127.82-51.05a15.06,15.06,0,0,1,20.64-21.94c11.46,10.78,53.61,45.74,114.64,42.68,51.41-2.55,86.43-30.68,99.1-42.66a15.06,15.06,0,1,1,20.69,21.89c-15.1,14.28-56.85,47.81-118.3,50.86C3295.29,2192.43,3292.3,2192.5,3289.36,2192.5Z" transform="translate(-25.83 -33)"/><polygon class="cls-4" points="4540.42 2294.61 5197.48 860.26 5476.82 979.29 4616.94 2331.05 4540.42 2294.61"/><polygon class="cls-4" points="5267.22 2898.76 6311.46 1901.15 6442.72 2094.31 5301.53 2954.91 5267.22 2898.76"/><polygon class="cls-4" points="1163.31 2992.31 139.22 2206.05 41.13 2390.36 1138.22 3045.52 1163.31 2992.31"/><path class="cls-15" d="M1682.73,1222.4c213.63,0,386.82,111.74,386.82,249.58,0,95.12-82.47,177.81-203.79,219.93,24.66,52.73,72,149.9,72,149.9-15-16.81-175-125.6-175-125.6s-52.61,5.35-80.07,5.35c-213.63,0-386.81-111.74-386.81-249.58S1469.1,1222.4,1682.73,1222.4Z" transform="translate(-25.83 -33)"/><circle class="cls-3" cx="1458.04" cy="1442.63" r="40.91"/><circle class="cls-3" cx="1656.9" cy="1442.63" r="40.91"/><circle class="cls-3" cx="1855.76" cy="1442.63" r="40.91"/><path class="cls-15" d="M4965,283.23c-157.67,0-285.48,82.47-285.48,184.2,0,70.2,60.87,131.22,150.4,162.31-18.2,38.92-53.15,110.63-53.15,110.63,11.1-12.41,129.13-92.7,129.13-92.7s38.84,4,59.1,4c157.66,0,285.47-82.46,285.47-184.19S5122.66,283.23,4965,283.23Z" transform="translate(-25.83 -33)"/><circle class="cls-3" cx="5085.93" cy="437.12" r="30.19"/><circle class="cls-3" cx="4939.17" cy="437.12" r="30.19"/><circle class="cls-3" cx="4792.4" cy="437.12" r="30.19"/><path class="cls-15" d="M5024,4660.72H4761.38c-288.53-242-267-468.43-267-468.43h118.76l71.5,80.13,62.07-80.13H5291S5312.54,4418.73,5024,4660.72Z" transform="translate(-25.83 -33)"/><path class="cls-3" d="M4831.15,4093.89c-20.26-46-41-113.36,4.76-151.36l.14-.12,0,0s0,.09.09,0a4.28,4.28,0,0,0,1.49-1.55c2.18-3.18,3.71-8,4.82-12.12,4-16.17,4.81-33.26,5-50.33,0-23.27-1.26-47.19-5.42-70.1a8.42,8.42,0,0,1,16.26-4.25c2,6.13,3.6,12.11,5.07,18.14a472.66,472.66,0,0,1,9.76,54.74c2.62,25.36,6.59,66.28-9.64,87.89a47,47,0,0,1-4,4.47c-19.21,20.8-4.8,55.8,6.16,78.67,3.74,7.53,7.82,14.83,12.15,22.11a26.25,26.25,0,1,1-46.68,23.79Z" transform="translate(-25.83 -33)"/><path class="cls-3" d="M4938,3906.1c14-23.94,33.73-60.66,25.65-88.09a33.8,33.8,0,0,0-7.43-12.54,48.31,48.31,0,0,1-4-4.46c-22.62-29.09-8-108.07.12-142.63,1.48-6,3.06-12,5.07-18.14,3.58-9.93,18.11-6.1,16.24,4.37-5.91,32.67-9.25,96.55,1.84,127.24,1.13,2.73,2.08,4.89,3.75,6.53a1.05,1.05,0,0,0,.35.21s.06,0,.08,0a67.6,67.6,0,0,1,9.12,8.75c30,35.08,18,86.08,3.24,124.78-2.31,6.11-4.84,12-7.41,18a26.25,26.25,0,1,1-46.6-24Z" transform="translate(-25.83 -33)"/><path class="cls-3" d="M5006.86,4282.21c-39.9-18.61-89.24,25.64-110.2,98.83q-2.08,7.34-4,14.55-1.87-7.22-4-14.55c-20.95-73.19-70.29-117.44-110.19-98.83s-35.92,85.33,8.91,149c40.45,57.48,84.56,99.12,104.58,100h1.34c20-.88,64.13-42.52,104.58-100C5042.77,4367.54,5046.76,4300.82,5006.86,4282.21Z" transform="translate(-25.83 -33)"/><circle class="cls-15" cx="5432.89" cy="2044.26" r="91.68"/><circle class="cls-15" cx="5574.35" cy="1908.04" r="37.98"/><circle class="cls-15" cx="788.8" cy="3366.87" r="91.68"/><circle class="cls-15" cx="613.72" cy="3277.94" r="37.98"/><path class="cls-15" d="M4710.43,4566a99.07,99.07,0,0,1-19-2c-70.24-13.74-146-41.09-202.69-73.14-34.5-19.52-62-40.62-81.81-62.74-24.36-27.23-37.11-56-37.9-85.59-.93-34.82,15.32-53.61,29.11-63.24,24.77-17.3,63.83-20.35,116.1-9.07a463.22,463.22,0,0,1,66.15,19.76l5.07,2,3.84,3.86c1.85,1.86,45.76,46.09,87.88,96,25.17,29.8,44.45,55.46,57.3,76.27,14.37,23.25,29.24,53,16.59,76.66C4745.54,4555.08,4734.11,4566,4710.43,4566Zm-252.29-250.08c-13.57,0-24,2.11-30,6.32-2.12,1.49-7.1,5-6.73,18.89.9,33.69,34,70.67,93.13,104.12,51.4,29.07,120.19,54,184.51,66.85-6.88-14.4-24.42-43-69.17-95-31.31-36.42-62.9-69.16-73.77-80.27a423.28,423.28,0,0,0-53.58-15.52C4485.73,4317.71,4470.61,4315.93,4458.14,4315.93Z" transform="translate(-25.83 -33)"/><path class="cls-16" d="M6192,4250.08a41.85,41.85,0,0,1-33.29-16.4l-86.31-112.5a41.91,41.91,0,0,1,66.51-51l86.31,112.5a41.91,41.91,0,0,1-33.22,67.42Z" transform="translate(-25.83 -33)"/><path class="cls-16" d="M6092.82,4237.25a41.92,41.92,0,0,1-25.54-75.17l112.5-86.31a41.91,41.91,0,0,1,51,66.51l-112.5,86.31A41.69,41.69,0,0,1,6092.82,4237.25Z" transform="translate(-25.83 -33)"/><path class="cls-16" d="M187.59,3151.26c-89.2,0-161.76-72.56-161.76-161.75s72.56-161.76,161.76-161.76,161.75,72.57,161.75,161.76S276.78,3151.26,187.59,3151.26Zm0-239.68a77.93,77.93,0,1,0,77.93,77.93A78,78,0,0,0,187.59,2911.58Z" transform="translate(-25.83 -33)"/><rect class="cls-12" x="1209.47" y="4428.37" width="930.71" height="199.44" rx="12"/><rect class="cls-3" x="1858.95" y="4428.37" width="156.51" height="199.67"/><rect class="cls-15" x="1737.3" y="4186.33" width="826.16" height="133.04" rx="12" transform="translate(5436.44 793.16) rotate(70.85)"/><rect class="cls-3" x="2001.59" y="3946.49" width="133.19" height="138.93" transform="matrix(0.94, -0.33, 0.33, 0.94, -1228.97, 867.88)"/><rect class="cls-2" x="1163.07" y="4248.59" width="879.51" height="179.81" rx="12"/><rect class="cls-3" x="1261.93" y="4248.59" width="205.89" height="180.02"/><path class="cls-4" d="M4130.52,2321.61c23.66,4.49,47,10.31,70.2,16.59,133,36.66,261.24,90.53,381.71,157.82,165.1,92.9,317.7,213.79,429.1,368.25,13.82,19.15,27.59,40.05,39.88,60.21,4.61,7.75,9.11,15.57,13.57,23.4,5.75,10.68-8.43,20.95-16.71,11.22-14.55-17.84-30-36.8-45.23-54.18-126.5-145.8-281.13-264.94-447.26-362.44-126.73-74-260.1-136.88-397.26-189.23l-16.55-6.19-8.28-3c-2.79-1-5.67-2.06-8.37-3a10.09,10.09,0,0,1,5.2-19.43Z" transform="translate(-25.83 -33)"/><path class="cls-4" d="M943,4337c-2.26-24-3.15-48-3.57-72-1.77-138,14.34-276.11,45.5-410.54,43.35-184.41,117.05-364.61,234.46-514.55,14.55-18.59,30.8-37.64,46.75-55.05,6.16-6.58,12.42-13.08,18.7-19.54,8.66-8.48,22.47,2.28,15.42,12.94-13.09,18.93-27,39.06-39.46,58.51-104.9,162-176.36,343.69-223.84,530.38-35.9,142.31-59.18,287.89-71.34,434.21l-1.35,17.61-.6,8.8c-.21,3-.4,6-.56,8.87a10.09,10.09,0,0,1-20.11.4Z" transform="translate(-25.83 -33)"/><path class="cls-17" d="M3580.59,289.47c32.79,4.9,66.45,7.42,99.56,9.18,45.58,2.19,92,2.23,137.59.29a1567.76,1567.76,0,0,0,357.2-57.34c6.89-2,29.06-8.59,36-10.65,8.54-2.79,27.2-8.8,35.73-11.53,22.91-7.83,48-16.84,70.64-25.65,14.42-5.36,32.38-13.14,46.68-18.75a4.36,4.36,0,0,1,3.55,8c-128.13,64.55-268.06,105.35-410.31,123.21a1341.82,1341.82,0,0,1-189.53,10.72c-50.46-.87-101.42-4.43-151.33-12-12.6-2-24.95-4.12-37.49-6.88a4.37,4.37,0,0,1,1.73-8.56Z" transform="translate(-25.83 -33)"/><g class="cls-18"><path class="cls-19" d="M4213.91,3565.72v883c0,116.56-95.36,211.94-211.93,211.94H2588.59c-75.36,0-141.87-39.87-179.45-99.56,252.18-59.13,525.33-223.64,774.23-412.93q14.55-11.06,29-22.24c74.65-57.74,146.9-117.48,215.54-177q13.84-12,27.5-24c317.15-278.39,550.89-544.71,572.52-569.56C4132.37,3368.26,4213.91,3457.94,4213.91,3565.72Z" transform="translate(-25.83 -33)"/></g></g></g></svg>