<?xml version="1.0" encoding="UTF-8"?><svg id="_Слой_1" xmlns="http://www.w3.org/2000/svg" viewBox="0 0 323.39 323.39"><defs><style>.cls-1{fill:#010101;}</style></defs><path class="cls-1" d="m297.67,323.39H25.72c-14.18,0-25.72-11.54-25.72-25.72V25.72C0,11.54,11.54,0,25.72,0h271.95c14.18,0,25.72,11.54,25.72,25.72v271.95c0,14.18-11.54,25.72-25.72,25.72ZM25.72,11.39c-7.9,0-14.33,6.43-14.33,14.33v271.95c0,7.9,6.43,14.33,14.33,14.33h271.95c7.9,0,14.33-6.43,14.33-14.33V25.72c0-7.9-6.43-14.33-14.33-14.33H25.72Z"/><path class="cls-1" d="m122.45,144.63l-1.72-.87c-7.84-3.94-15.25-7.67-21.09-13.35-4.24-4.12-5.92-9.68-4.48-14.87,1.47-5.3,5.89-9.29,11.85-10.69,5.23-1.23,10.99-1.31,15.9-1.23,8.9.14,16.59,1.76,23.52,4.94,1.16.53,2.37.99,3.8,1.54.66.25,1.37.52,2.16.82l5.79,2.27v-6.22c0-2.32-.03-4.57-.05-6.77-.06-4.95-.11-9.63.15-14.23.36-6.25-2.49-10.11-8.71-11.8-7.6-2.06-15.06-3.33-22.8-3.91-14.01-1.03-25.46.23-36.02,3.96-24.7,8.74-37.9,33.8-31.37,59.61,3.52,13.92,12.59,24.87,28.55,34.46,4.14,2.49,8.42,4.84,12.56,7.11,4.92,2.7,10.02,5.5,14.79,8.49,8.29,5.19,12.01,10.04,12.42,16.21.36,5.37-.87,9.08-3.98,12.05-4.29,4.08-9.85,4.6-16.67,4.85-12.91.45-42.87-9.81-43.17-9.91l-5.82-2.01,1.27,39.5,2.94.87c.79.23,19.34,5.69,28.61,6.06,1.74.27,4.6.47,8.2.47,12.76,0,34.76-2.53,48.63-13.5,11.75-8.84,17.72-20.98,17.76-36.07,0-3.14-1.28-21.82-7.12-29.57-8.97-13.84-23.21-21.82-35.87-28.21Z"/><path class="cls-1" d="m239.28,74.16v38.3h24.75v38.69h-24.75v48.85c0,5.88.48,9.76,1.44,11.66,1.47,2.93,4.05,4.4,7.74,4.4,3.32,0,11.26-.38,16.91-.37l.32,33.48c-11.12,2.86-21.51,4.28-31.16,4.28-11.2,0-19.45-1.69-24.75-5.05-5.3-3.38-9.23-8.49-11.77-15.37-2.54-6.87-3.81-17.99-3.81-33.39v-48.49h-16.58v-38.69h16.58v-25.32l45.08-12.98Z"/></svg>