<?xml version="1.0" encoding="UTF-8"?><svg id="_Слой_1" xmlns="http://www.w3.org/2000/svg" viewBox="0 0 142 142"><defs><style>.cls-1{fill:#010101;}</style></defs><path class="cls-1" d="m119.48,142H22.52c-12.42,0-22.52-10.1-22.52-22.52V22.53C0,10.1,10.1,0,22.52,0h96.95c12.42,0,22.52,10.1,22.52,22.53v96.95c0,12.42-10.1,22.52-22.52,22.52ZM22.52,5c-9.66,0-17.52,7.86-17.52,17.53v96.95c0,9.66,7.86,17.52,17.52,17.52h96.95c9.66,0,17.52-7.86,17.52-17.52V22.53c0-9.66-7.86-17.53-17.52-17.53H22.52Z"/><path d="m48.16,36.7c3.15,0,6.05.24,8.72.96,2.67.48,4.85,1.47,6.8,2.67s3.39,2.91,4.38,5.09c.96,2.19,1.47,4.85,1.47,7.76,0,3.39-.72,6.29-2.43,8.48-1.47,2.19-3.87,4.14-6.8,5.57,4.14,1.2,7.28,3.39,9.2,6.29,1.92,2.91,3.15,6.53,3.15,10.67,0,3.39-.72,6.29-1.95,8.72-1.2,2.43-3.15,4.62-5.33,6.05-2.19,1.47-4.85,2.67-7.76,3.39-2.91.72-5.81,1.2-8.72,1.2l-32.49.06V36.7h31.77Zm-1.95,27.15c2.67,0,4.85-.72,6.53-1.95s2.43-3.39,2.43-6.05c0-1.47-.24-2.91-.72-3.87-.48-.96-1.2-1.71-2.19-2.43-.96-.48-1.95-.96-3.15-1.2s-2.43-.24-3.87-.24h-14.06v15.76s15.01-.03,15.01-.03Zm.72,28.62c1.47,0,2.91-.24,4.14-.48,1.2-.24,2.43-.72,3.39-1.47s1.71-1.47,2.43-2.67c.48-1.2.96-2.67.96-4.38,0-3.39-.96-5.81-2.91-7.52-1.95-1.47-4.62-2.19-7.76-2.19h-15.97v18.67h15.73v.03Z"/><path d="m93.74,92.23c1.95,1.95,4.85,2.91,8.72,2.91,2.67,0,5.09-.72,7.04-1.95,1.95-1.47,3.15-2.91,3.63-4.38h11.87c-1.95,5.81-4.85,9.95-8.72,12.62-3.87,2.43-8.48,3.87-14.06,3.87-3.87,0-7.28-.72-10.43-1.95-3.15-1.2-5.57-2.91-7.76-5.33-2.19-2.19-3.87-4.85-4.85-8-1.2-3.15-1.71-6.53-1.71-10.43,0-3.63.48-7.04,1.71-10.19s2.91-5.81,5.09-8.24c2.19-2.19,4.85-4.14,7.76-5.33,3.15-1.2,6.29-1.95,10.19-1.95,4.14,0,7.76.72,10.91,2.43,3.15,1.71,5.57,3.63,7.52,6.53,1.95,2.67,3.39,5.81,4.38,9.2.48,3.39.72,6.8.48,10.67h-35.15c0,3.96,1.44,7.58,3.39,9.53Zm15.28-25.47c-1.71-1.71-4.38-2.67-7.52-2.67-2.19,0-3.87.48-5.33,1.2s-2.43,1.71-3.39,2.67c-.96.96-1.47,2.19-1.71,3.39s-.48,2.19-.48,3.15h21.82c-.48-3.6-1.71-6.02-3.39-7.73Zm-21.34-25.44h27.15v6.53h-27.15v-6.53Z"/></svg>