<?xml version="1.0" encoding="UTF-8"?><svg id="_Слой_1" xmlns="http://www.w3.org/2000/svg" viewBox="0 0 312.83 312.83"><defs><style>.cls-1{fill:#010101;}</style></defs><path class="cls-1" d="m156.41,312.83c-41.61,0-80.85-16.32-110.47-45.94C16.32,237.26,0,198.03,0,156.41S16.32,75.57,45.94,45.94C75.57,16.32,114.8,0,156.41,0s80.85,16.32,110.47,45.94c29.63,29.63,45.94,68.86,45.94,110.47s-16.32,80.85-45.94,110.47-68.86,45.94-110.47,45.94Zm0-301.81c-38.67,0-75.14,15.17-102.68,42.72S11.01,117.74,11.01,156.41s15.17,75.14,42.72,102.68,64.01,42.72,102.68,42.72,75.14-15.17,102.68-42.72,42.72-64.01,42.72-102.68-15.17-75.14-42.72-102.68S195.08,11.01,156.41,11.01Z"/><path class="cls-1" d="m235.11,90.12H77.72c-16.71,0-30.3,13.59-30.3,30.31v79.98c0,16.71,13.59,30.31,30.3,30.31h157.39c16.71,0,30.3-13.59,30.3-30.31v-79.98c0-16.71-13.59-30.31-30.3-30.31Zm-64.58,74.67c-6.02,5.76-15.32,6-21.62.54l-77.24-66.78c1.99-.56,4.02-.84,6.05-.84h157.39c1.45,0,2.93.16,4.43.46-8.51,8.53-33.45,32.6-69.01,66.61Zm-43.37-5.79l15.58,13.47c4.66,4.03,10.58,6.25,16.68,6.25,6.57,0,12.83-2.52,17.62-7.11l11.64-11.14,53.15,61.61c-2.2.69-4.46,1.04-6.72,1.04H77.72c-3.84,0-7.63-.99-11.02-2.89l60.46-61.23Zm68.34-5.07c8.97-8.6,18.55-17.81,27.13-26.09,8.31-8.02,14.8-14.33,19.3-18.76,3.32-3.26,5.39-5.32,6.78-6.81,5.72,4.29,9.11,11.03,9.11,18.16v79.98c0,6.52-2.76,12.61-7.62,16.93l-54.7-63.4Zm-75.48-1.12l-60.44,61.21c-2.95-3.92-4.57-8.73-4.57-13.63v-79.98c0-6.57,2.83-12.77,7.78-17.09l57.23,49.48Z"/></svg>