<?xml version="1.0" encoding="UTF-8"?><svg id="_Слой_1" xmlns="http://www.w3.org/2000/svg" viewBox="0 0 142 142"><defs><style>.cls-1{fill:#010101;}</style></defs><path class="cls-1" d="m119.48,142H22.52c-12.42,0-22.52-10.1-22.52-22.52V22.52C0,10.1,10.1,0,22.52,0h96.95c12.42,0,22.52,10.1,22.52,22.52v96.95c0,12.42-10.1,22.52-22.52,22.52ZM22.52,5c-9.66,0-17.52,7.86-17.52,17.52v96.95c0,9.66,7.86,17.52,17.52,17.52h96.95c9.66,0,17.52-7.86,17.52-17.52V22.52c0-9.66-7.86-17.52-17.52-17.52H22.52Z"/><path class="cls-1" d="m71,109.5c-21.23,0-38.5-17.27-38.5-38.5s17.27-38.5,38.5-38.5,38.5,17.27,38.5,38.5-17.27,38.5-38.5,38.5Zm0-70c-17.37,0-31.5,14.13-31.5,31.5s14.13,31.5,31.5,31.5,31.5-14.13,31.5-31.5-14.13-31.5-31.5-31.5Z"/><path class="cls-1" d="m113.25,40.75c-5.24,0-9.5-4.26-9.5-9.5s4.26-9.5,9.5-9.5,9.5,4.26,9.5,9.5-4.26,9.5-9.5,9.5Zm0-13c-1.93,0-3.5,1.57-3.5,3.5s1.57,3.5,3.5,3.5,3.5-1.57,3.5-3.5-1.57-3.5-3.5-3.5Z"/></svg>