<?xml version="1.0" encoding="UTF-8"?><svg id="_Слой_1" xmlns="http://www.w3.org/2000/svg" viewBox="0 0 142 142"><defs><style>.cls-1{fill:#010101;}</style></defs><path class="cls-1" d="m119.48,142H22.52c-12.42,0-22.52-10.1-22.52-22.52V22.52C0,10.1,10.1,0,22.52,0h96.95c12.42,0,22.52,10.1,22.52,22.52v96.95c0,12.42-10.1,22.52-22.52,22.52ZM22.52,5c-9.66,0-17.52,7.86-17.52,17.52v96.95c0,9.66,7.86,17.52,17.52,17.52h96.95c9.66,0,17.52-7.86,17.52-17.52V22.52c0-9.66-7.86-17.52-17.52-17.52H22.52Z"/><path class="cls-1" d="m110.65,35.59H31.35c-8.42,0-15.27,6.85-15.27,15.27v40.29c0,8.42,6.85,15.27,15.27,15.27h79.29c8.42,0,15.27-6.85,15.27-15.27v-40.29c0-8.42-6.85-15.27-15.27-15.27Zm-32.53,37.62c-3.03,2.9-7.72,3.02-10.89.27L28.31,39.84c1-.28,2.02-.42,3.05-.42h79.29c.73,0,1.48.08,2.23.23-4.29,4.3-16.85,16.42-34.77,33.56Zm-21.85-2.92l7.85,6.78c2.35,2.03,5.33,3.15,8.4,3.15,3.31,0,6.46-1.27,8.88-3.58l5.86-5.61,26.77,31.04c-1.11.35-2.25.53-3.39.53H31.35c-1.94,0-3.84-.5-5.55-1.45l30.46-30.85Zm34.43-2.55c4.52-4.33,9.35-8.97,13.67-13.15,4.19-4.04,7.46-7.22,9.72-9.45,1.67-1.64,2.72-2.68,3.42-3.43,2.88,2.16,4.59,5.56,4.59,9.15v40.29c0,3.29-1.39,6.35-3.84,8.53l-27.56-31.94Zm-38.03-.56l-30.45,30.84c-1.49-1.98-2.3-4.4-2.3-6.87v-40.29c0-3.31,1.42-6.43,3.92-8.61l28.83,24.93Z"/></svg>