<?xml version="1.0" encoding="UTF-8"?><svg id="_Слой_1" xmlns="http://www.w3.org/2000/svg" viewBox="0 0 323.39 323.39"><defs><style>.cls-1{fill:#010101;}</style></defs><path class="cls-1" d="m297.67,323.39H25.72c-14.18,0-25.72-11.54-25.72-25.72V25.72C0,11.54,11.54,0,25.72,0h271.95c14.18,0,25.72,11.54,25.72,25.72v271.95c0,14.18-11.54,25.72-25.72,25.72ZM25.72,11.39c-7.9,0-14.33,6.43-14.33,14.33v271.95c0,7.9,6.43,14.33,14.33,14.33h271.95c7.9,0,14.33-6.43,14.33-14.33V25.72c0-7.9-6.43-14.33-14.33-14.33H25.72Z"/><path class="cls-1" d="m86.54,152.58h-45.55v-50.12c0-35.15,28.6-63.75,63.75-63.75h41.01v45.55h-41.01c-10.04,0-18.21,8.17-18.21,18.21v50.12Z"/><path class="cls-1" d="m236.85,170.8h45.55v50.12c0,35.15-28.6,63.75-63.75,63.75h-41.01v-45.55h41.01c10.04,0,18.21-8.17,18.21-18.21v-50.12Z"/></svg>