<?xml version="1.0" encoding="UTF-8"?><svg id="_Слой_1" xmlns="http://www.w3.org/2000/svg" viewBox="0 0 142 142"><defs><style>.cls-1{fill:#010101;}</style></defs><path class="cls-1" d="m74.44,142h-6.88C30.31,142,0,111.69,0,74.44v-6.88C0,30.31,30.31,0,67.56,0h6.88c37.25,0,67.56,30.31,67.56,67.56v6.88c0,37.25-30.31,67.56-67.56,67.56ZM67.56,5C33.06,5,5,33.06,5,67.56v6.88c0,34.5,28.06,62.56,62.56,62.56h6.88c34.5,0,62.56-28.06,62.56-62.56v-6.88c0-34.5-28.06-62.56-62.56-62.56h-6.88Z"/><path class="cls-1" d="m99.73,37.87c-2.29-1.62-5.18-1.9-7.73-.73l-65.84,30.14c-3,1.38-4.77,4.39-4.51,7.68s2.49,5.98,5.66,6.87l23.63,6.56,34.26,23.12c1.32.89,2.82,1.34,4.34,1.34,1.13,0,2.26-.25,3.33-.76,2.5-1.19,4.15-3.54,4.41-6.3l5.68-60.88c.26-2.79-.95-5.43-3.24-7.06Zm-1.97,6.57l-5.68,60.88c-.12,1.3-1.05,1.87-1.44,2.06-.39.19-1.42.54-2.51-.19l-29.84-20.14c.13-.11.27-.23.4-.36l22.3-23.86c2.16-2.34-.99-5.8-3.52-3.86,0,0-25.79,20.05-25.79,20.05-1.29,1.1-1.9,2.36-2.02,3.6l-20.96-5.82c-1.59-.44-1.82-1.83-1.85-2.24-.03-.42-.02-1.83,1.48-2.51l65.84-30.14c1.2-.55,2.17-.02,2.53.24.36.25,1.18.99,1.06,2.31Z"/></svg>