<?xml version="1.0" encoding="UTF-8"?><svg id="_Слой_1" xmlns="http://www.w3.org/2000/svg" viewBox="0 0 2626 1151.38"><defs><style>.cls-1{fill:#fff;}</style></defs><path class="cls-1" d="m576.24,194.73c0,109.05,113.38,193,113.38,328.02,0,109.92-96.07,204.25-226.76,204.25-144.54,0-257.91-96.07-257.91-267.43,0-42.41,15.58-57.99,38.08-57.99,18.18,0,32.89,8.65,46.74,22.5,42.41,41.54,116.84,79.62,186.94,86.55,11.25,1.73,18.18,11.25,17.31,21.64-1.73,12.12-12.12,20.77-24.23,19.04-78.76-10.39-166.17-50.2-212.91-99.53-1.73,1.73-2.6,5.19-2.6,8.65,0,144.54,93.47,226.76,208.58,226.76,108.19,0,173.96-77.03,173.96-162.71,0-120.3-109.92-202.52-109.92-328.88,0-98.67,86.55-171.37,187.81-171.37,28.56,0,53.66,5.19,75.3,14.71C829.82,14.71,872.23,0,900.79,0c14.71,0,19.91,6.06,19.91,14.71,0,10.39-5.19,15.58-24.23,17.31-18.18,2.6-45.87,12.12-73.57,27.7,25.1,22.5,38.95,53.66,38.95,90.88,0,77.03-50.2,129.82-107.32,129.82-47.6,0-79.62-32.89-79.62-84.82s33.75-95.2,77.03-130.69c-11.25-2.6-25.1-4.33-38.95-4.33-72.7,0-136.75,56.26-136.75,134.15Zm212.04-112.51c-38.95,29.43-70.1,69.24-70.1,113.38,0,32.89,15.58,47.6,37.22,47.6,35.48,0,64.05-45.01,64.05-90.88,0-30.29-11.25-54.53-31.16-70.1Z"/><path class="cls-1" d="m909.55,636.22c4.33-7.79,9.52-10.39,13.85-10.39,6.92,0,13.85,6.06,13.85,14.71,0,24.23-42.41,77.03-92.61,77.03-52.79,0-86.55-32.89-86.55-96.94,0-54.52,34.62-147.13,75.3-235.41h-40.68c-13.85,0-22.5-5.19-22.5-17.31,0-11.25,8.65-16.44,22.5-16.44h57.12c15.58-32.02,32.02-64.05,46.74-91.74,26.83-51.93,40.68-73.57,53.66-73.57,14.71,0,23.37,8.65,23.37,20.77,0,14.71-12.98,40.68-37.22,79.62l-32.89,64.91h49.33c13.85,0,21.64,6.92,21.64,15.58,0,12.12-8.65,18.18-21.64,18.18h-65.78c-43.27,91.74-81.36,186.08-81.36,241.47,0,39.81,19.04,56.26,44.14,56.26,23.37,0,45.01-21.64,59.72-46.74Z"/><path class="cls-1" d="m1346.8,636.22c4.33-7.79,9.52-10.39,13.85-10.39,6.92,0,13.85,6.06,13.85,14.71,0,24.23-40.68,77.03-88.28,77.03-45.01,0-83.09-31.16-83.09-90.01,0-4.33,0-7.79.87-11.25-41.54,57.12-90.88,101.26-142.81,101.26-57.99,0-99.53-38.08-99.53-107.32,0-128.09,132.42-258.78,238.87-258.78,38.95,0,69.24,13.85,85.68,42.41,7.79-25.96,23.37-42.41,37.22-42.41,14.71,0,23.37,8.65,23.37,20.77,0,14.71-14.71,40.68-38.95,79.62-26.83,57.99-57.99,127.23-57.99,175.69,0,38.08,16.44,55.39,41.54,55.39,21.64,0,40.68-22.5,55.39-46.74Zm-151.46-58.85c31.16-46.74,51.06-88.28,72.7-142.81-4.33-29.43-27.7-47.6-68.37-47.6-80.49,0-188.68,120.3-188.68,226.76,0,44.14,25.1,67.51,54.53,67.51,44.14,0,89.14-45.01,129.82-103.86Z"/><path class="cls-1" d="m1306.95,1109.02c0-61.63,27.39-277.98,65.55-391.46,47.94-141.86,115.44-292.51,175.12-407.96,43.05-85.11,82.18-110.55,114.46-110.55,41.09,0,68.48,27.39,68.48,81.2,0,134.03-136.96,326.76-292.51,399.15l-19.57,54.79c-36.2,107.62-61.63,317.11-61.63,374.83,0,43.05-49.89,68.48-49.89,0Zm151.64-484.4c128.16-80.22,226.97-245.56,226.97-344.37,0-30.33-10.76-41.09-24.46-41.09s-31.31,14.67-69.46,90.98c-45,89.03-91.96,192.73-133.05,294.47Z"/><path class="cls-1" d="m2324.59,636.22c4.33-7.79,9.52-10.39,13.85-10.39,6.92,0,13.85,6.06,13.85,14.71,0,24.23-40.68,77.03-88.28,77.03-45.01,0-83.09-31.16-83.09-90.01,0-4.33,0-7.79.87-11.25-41.54,57.12-90.88,101.26-142.81,101.26-57.99,0-99.53-38.08-99.53-107.32,0-128.09,132.42-258.78,238.87-258.78,38.95,0,69.24,13.85,85.68,42.41,7.79-25.96,23.37-42.41,37.22-42.41,14.71,0,23.37,8.65,23.37,20.77,0,14.71-14.71,40.68-38.95,79.62-26.83,57.99-57.99,127.23-57.99,175.69,0,38.08,16.44,55.39,41.54,55.39,21.64,0,40.68-22.5,55.39-46.74Zm-151.46-58.85c31.16-46.74,51.06-88.28,72.7-142.81-4.33-29.43-27.7-47.6-68.37-47.6-80.49,0-188.68,120.3-188.68,226.76,0,44.14,25.1,67.51,54.53,67.51,44.14,0,89.14-45.01,129.82-103.86Z"/><path class="cls-1" d="m2619.85,715.46H6.15c-3.4,0-6.15,2.75-6.15,6.15s2.75,6.15,6.15,6.15h2613.7c3.4,0,6.15-2.75,6.15-6.15s-2.75-6.15-6.15-6.15Z"/><path class="cls-1" d="m1860.47,638.57c4.37-7.86,9.61-10.48,13.98-10.48,6.99,0,13.98,6.11,13.98,14.85,0,24.46-41.06,77.74-89.09,77.74s-80.36-30.57-80.36-91.72,34.07-143.25,65.51-203.52c27.08-52.41,41.05-74.25,54.15-74.25,14.85,0,23.59,8.73,23.59,20.96,0,14.85-13.1,41.05-37.56,80.36-28.83,57.65-57.65,125.78-57.65,178.19,0,39.31,15.72,55.03,37.56,55.03s41.06-22.71,55.9-47.17Zm46.3-421.89c17.47,0,31.44,11.36,31.44,30.57,0,15.72-14.85,41.05-39.31,41.05-17.47,0-32.32-10.48-32.32-29.7s18.34-41.93,40.18-41.93Z"/></svg>