<?xml version="1.0" encoding="UTF-8"?><svg id="_Слой_1" xmlns="http://www.w3.org/2000/svg" viewBox="0 0 3120 1374.41"><defs><style>.cls-1{fill:#fff;}</style></defs><path class="cls-1" d="m680.52,232.46c0,130.18,135.34,230.39,135.34,391.56,0,131.21-114.68,243.82-270.68,243.82-172.53,0-307.88-114.68-307.88-319.24,0-50.62,18.6-69.22,45.46-69.22,21.7,0,39.26,10.33,55.79,26.86,50.62,49.59,139.47,95.05,223.16,103.31,13.43,2.07,21.7,13.43,20.66,25.83-2.07,14.46-14.46,24.79-28.93,22.73-94.02-12.4-198.36-59.92-254.15-118.81-2.07,2.07-3.1,6.2-3.1,10.33,0,172.53,111.58,270.68,248.99,270.68,129.14,0,207.66-91.95,207.66-194.23,0-143.61-131.21-241.75-131.21-392.59,0-117.78,103.31-204.56,224.19-204.56,34.09,0,64.05,6.2,89.88,17.56C983.23,17.56,1033.85,0,1067.94,0c17.56,0,23.76,7.23,23.76,17.56,0,12.4-6.2,18.6-28.93,20.66-21.7,3.1-54.76,14.47-87.82,33.06,29.96,26.86,46.49,64.05,46.49,108.48,0,91.95-59.92,154.97-128.11,154.97-56.82,0-95.05-39.26-95.05-101.25s40.29-113.64,91.95-156c-13.43-3.1-29.96-5.17-46.49-5.17-86.78,0-163.24,67.16-163.24,160.14Zm253.12-134.31c-46.49,35.13-83.68,82.65-83.68,135.34,0,39.26,18.6,56.82,44.42,56.82,42.36,0,76.45-53.72,76.45-108.48,0-36.16-13.43-65.09-37.19-83.68Z"/><path class="cls-1" d="m1078.4,752.12c5.17-9.3,11.36-12.4,16.53-12.4,8.27,0,16.53,7.23,16.53,17.56,0,28.93-50.62,91.95-110.55,91.95-63.02,0-103.31-39.26-103.31-115.71,0-65.09,41.33-175.63,89.88-281.01h-48.56c-16.53,0-26.86-6.2-26.86-20.66,0-13.43,10.33-19.63,26.86-19.63h68.19c18.6-38.23,38.23-76.45,55.79-109.51,32.03-61.99,48.56-87.82,64.05-87.82,17.56,0,27.89,10.33,27.89,24.8,0,17.56-15.5,48.56-44.42,95.05l-39.26,77.49h58.89c16.53,0,25.83,8.27,25.83,18.6,0,14.46-10.33,21.7-25.83,21.7h-78.52c-51.66,109.51-97.11,222.12-97.11,288.25,0,47.52,22.73,67.15,52.69,67.15,27.89,0,53.72-25.83,71.29-55.79Z"/><path class="cls-1" d="m1600.34,752.12c5.17-9.3,11.36-12.4,16.53-12.4,8.26,0,16.53,7.23,16.53,17.56,0,28.93-48.56,91.95-105.38,91.95-53.72,0-99.18-37.19-99.18-107.45,0-5.16,0-9.3,1.03-13.43-49.59,68.19-108.48,120.88-170.47,120.88-69.22,0-118.81-45.46-118.81-128.11,0-152.9,158.07-308.91,285.15-308.91,46.49,0,82.65,16.53,102.28,50.62,9.3-30.99,27.89-50.62,44.42-50.62,17.56,0,27.89,10.33,27.89,24.8,0,17.56-17.56,48.56-46.49,95.05-32.03,69.22-69.22,151.87-69.22,209.73,0,45.46,19.63,66.12,49.59,66.12,25.83,0,48.56-26.86,66.12-55.79Zm-180.8-70.25c37.19-55.79,60.96-105.38,86.78-170.47-5.17-35.13-33.06-56.82-81.62-56.82-96.08,0-225.22,143.61-225.22,270.68,0,52.69,29.96,80.58,65.09,80.58,52.69,0,106.41-53.72,154.97-123.98Z"/><path class="cls-1" d="m1552.77,1323.85c0-73.57,32.7-331.82,78.24-467.29,57.22-169.33,137.8-349.18,209.04-486.98,51.38-101.6,98.1-131.96,136.64-131.96,49.05,0,81.75,32.7,81.75,96.93,0,159.99-163.49,390.05-349.18,476.47l-23.36,65.4c-43.21,128.46-73.57,378.54-73.57,447.44,0,51.38-59.56,81.75-59.56,0Zm181.01-578.23c152.98-95.76,270.93-293.12,270.93-411.07,0-36.2-12.85-49.05-29.2-49.05s-37.37,17.52-82.91,108.61c-53.72,106.27-109.78,230.06-158.82,351.51Z"/><path class="cls-1" d="m2767.55,752.12c5.17-9.3,11.36-12.4,16.53-12.4,8.26,0,16.53,7.23,16.53,17.56,0,28.93-48.56,91.95-105.38,91.95-53.72,0-99.18-37.19-99.18-107.45,0-5.16,0-9.3,1.03-13.43-49.59,68.19-108.48,120.88-170.47,120.88-69.22,0-118.81-45.46-118.81-128.11,0-152.9,158.07-308.91,285.15-308.91,46.49,0,82.65,16.53,102.28,50.62,9.3-30.99,27.89-50.62,44.42-50.62,17.56,0,27.89,10.33,27.89,24.8,0,17.56-17.56,48.56-46.49,95.05-32.03,69.22-69.22,151.87-69.22,209.73,0,45.46,19.63,66.12,49.59,66.12,25.83,0,48.56-26.86,66.12-55.79Zm-180.8-70.25c37.19-55.79,60.96-105.38,86.78-170.47-5.17-35.13-33.06-56.82-81.62-56.82-96.08,0-225.22,143.61-225.22,270.68,0,52.69,29.96,80.58,65.09,80.58,52.69,0,106.41-53.72,154.97-123.98Z"/><rect class="cls-1" y="848.55" width="3120" height="11.01"/><path class="cls-1" d="m2213.52,754.92c5.21-9.38,11.47-12.51,16.68-12.51,8.34,0,16.68,7.3,16.68,17.73,0,29.2-49.01,92.8-106.35,92.8s-95.93-36.49-95.93-109.48,40.66-171,78.2-242.95c32.32-62.56,49-88.63,64.64-88.63,17.73,0,28.16,10.43,28.16,25.02,0,17.73-15.64,49.01-44.83,95.93-34.41,68.82-68.82,150.15-68.82,212.71,0,46.92,18.77,65.69,44.83,65.69s49.01-27.11,66.73-56.31Zm55.27-503.62c20.85,0,37.53,13.56,37.53,36.49,0,18.77-17.72,49.01-46.92,49.01-20.85,0-38.58-12.51-38.58-35.45s21.9-50.05,47.97-50.05Z"/></svg>