<?xml version="1.0" encoding="UTF-8"?><svg xmlns="http://www.w3.org/2000/svg" viewBox="0 0 840 602.86"><defs><style>.cls-1{fill:#efb143;}.cls-2{fill:#fff;}.cls-3,.cls-4{fill:#f2c5af;}.cls-5{fill:#bababa;}.cls-6,.cls-7{fill:#d6d6d6;}.cls-8{fill:#6d5448;}.cls-9{fill:#3b3c3f;}.cls-10,.cls-11{fill:#779e91;}.cls-11,.cls-4,.cls-7{mix-blend-mode:multiply;}.cls-7{opacity:.23;}.cls-12{isolation:isolate;}</style></defs><g class="cls-12"><g id="_Слой_1"><g><g><g><path class="cls-9" d="m799.7,392.65h35.56c2.61,0,4.74,2.14,4.74,4.74v200.72c0,2.61-2.14,4.74-4.74,4.74h-35.56c-2.57,0-4.68-2.07-4.74-4.62,0-.04,0-.08,0-.12v-200.72c0-2.61,2.14-4.74,4.74-4.74Z"/><rect class="cls-2" x="794.95" y="420.82" width="45.05" height="22.69"/><rect class="cls-2" x="794.95" y="449.65" width="45.05" height="6.15"/></g><g><rect class="cls-10" x="675.33" y="483.24" width="198.65" height="40.61" rx="6.95" ry="6.95" transform="translate(271.11 1278.19) rotate(-90)"/><rect class="cls-2" x="754.35" y="555.13" width="40.66" height="25.41"/><rect class="cls-2" x="754.35" y="544.85" width="40.66" height="4.45"/></g><g><rect class="cls-1" x="645.85" y="494.28" width="187.43" height="29.74" rx="5.47" ry="5.47" transform="translate(1248.71 -230.41) rotate(90)"/><rect class="cls-9" x="724.66" y="461.93" width="29.78" height="20.33"/><rect class="cls-9" x="724.66" y="452.21" width="29.78" height="6.33"/></g></g><g><path class="cls-8" d="m534.94,111.23c-2.27,4.29-45.35,8.8-45.35,8.8l-3.06-72.08-4.25-39.62s.78-.09,2.1-.16c4.57-.24,15.58-.22,22.54,4.67,8.97,6.3,22.46,22.69,27.6,43.66,5.13,20.97,2.68,50.44.41,54.73Z"/><path class="cls-3" d="m633.76,409.42h-339.75s-16.76-118.46,48.06-124.05c10.53-.91,20.23-3.41,29.09-6.96,14.2-5.68,26.26-14.06,36.14-22.91,14.2-12.73,24.23-29.53,28.22-48.18.39-1.81.69-3.49.88-5.01,1.42-11.02,1.36-19.19,1.36-19.19,0,0,57.18-21.16,57.8,6.24.11,4.95,1.05,10.66,2.51,16.67.23.96.47,1.93.72,2.92,5.41,21.46,17.14,40.94,34.25,54.97,7.74,6.36,16.98,12.04,27.85,16,7.47,2.74,15.71,4.66,24.8,5.44,64.82,5.59,48.06,124.05,48.06,124.05Z"/><path class="cls-8" d="m482.65,8.39s-4.45-10.59-21.88-7.97c-17.43,2.62-50.04,21.8-57.8,37.25-7.76,15.45-8.9,62.32-4.3,69.82,4.59,7.49,12.76,11.17,12.76,11.17l92.7,1.32-21.47-111.57Z"/><path class="cls-4" d="m498.08,206.03c-8.5,6.54-18.33,12.28-31.5,10.88-9.52-1-21.06-7.58-30.17-14.6,1.42-11.03,1.36-19.2,1.36-19.2,0,0,57.18-21.15,57.81,6.24.11,4.95,1.05,10.66,2.51,16.68Z"/><path class="cls-3" d="m440.8,53.35c-14.58,8.7-28.91,27.96-31.85,41.79-2.94,13.83-1.68,24.5,1.06,36.72,2.74,12.23,6.49,36.64,12.79,45.48,6.3,8.84,28.02,26.3,44.05,28,16.03,1.69,27.1-7.16,36.85-15.17,9.75-8.01,16.63-23.05,17.61-27.8.98-4.75,4.38-28.34,5.4-34.39,1.02-6.06,1.92-25.58.84-34.72-1.08-9.15-11.27-36.75-30.19-44.16-13.75-5.38-30.34-11.38-56.56,4.27Z"/><path class="cls-3" d="m526.59,115.36s6.51-17.65,9.45-13.67-1.34,19.51-1.91,25.14c-.57,5.63-3.49,18.59-5.68,19.4s-8.65-1.51-8.65-1.51l6.79-29.37Z"/><path class="cls-3" d="m408.5,113.8s-7.89-14.96-11-11.99c-3.11,2.96,1.49,10.02,1.84,13.51.35,3.48,3.1,15.28,3.87,19.64.76,4.36,5.4,14.46,9.76,11.31,4.37-3.15-4.47-32.46-4.47-32.46Z"/><circle class="cls-2" cx="527.98" cy="141.43" r="2.22"/><circle class="cls-2" cx="409.9" cy="142.24" r="2.22"/><path class="cls-9" d="m633.76,409.42h-339.75s-16.76-118.46,48.06-124.05c10.53-.91,20.23-3.41,29.09-6.96,20.14,8.87,53.58,20.27,96.08,20.37,40.66.09,73.12-10.19,93.67-18.85,7.47,2.74,15.71,4.66,24.8,5.44,64.82,5.59,48.06,124.05,48.06,124.05Z"/></g><g><path class="cls-10" d="m134.37,502.19c-2.69-4.64,8.06-86.96,2.69-111.31-5.37-24.35-8.73-89.39-8.73-89.39,0,0-7.39,69.68-10.08,76.64-2.69,6.96-6.72,69.57-5.37,80,1.34,10.44,8.94,42.03,8.94,42.03l12.56,2.03Z"/><path class="cls-10" d="m170.64,356.09c-4.03,12.75-13.44,53.34-13.44,74.2s-13.6,68.39-13.6,68.39l-21.34,13.94v-134.5c0-3.93,2.1-15.25,5.06-28.28,4.93-21.58,12.25-47.82,16.44-52.88,6.72-8.12,26.87-51.02,26.87-51.02-4.03,19.71,4.03,97.4,0,110.15Z"/><path class="cls-10" d="m130.09,513.53l-6.92-5.66-2.69-2.19-2.49-2.03-13.44-10.98c-1.67-3.6-2.21-69.34-1.41-125,.48-33.91,1.47-64.08,3-74.18,4.03-26.66,4.03-40.58,4.03-40.58,0,0,6.72,19.71,5.38,31.3-1.02,8.82,4.12,43.53,7.55,64.09,1.08,6.48,1.99,11.55,2.49,13.97,1.72,8.42,3.71,108.74,4.31,141.2.12,6.31.18,10.07.18,10.07Z"/><path class="cls-10" d="m139.45,440.67s19.34-26.72,28.51-35.88c12.81-12.8,27.86-35.8,37.62-51.02,9.35-14.58,10.75-19.71,10.75-19.71,0,0-4.03,20.87-4.03,26.67s-25.12,43.97-29.15,49.77c-4.03,5.8-27.69,45.68-35.76,48-8.06,2.32-7.95-17.83-7.95-17.83Z"/><path class="cls-11" d="m122.21,419.44c-2.43,13.63.64,74.69-1.73,86.23l-15.92-13.01c-1.67-3.6-2.21-69.34-1.41-125,8.18,16.75,20.95,41.16,19.06,51.78Z"/><path class="cls-10" d="m95.4,502.19s-8.06-19.71-9.41-45.22c-1.34-25.51-1.34-47.54-2.69-55.65-1.34-8.12-6.72-27.83-4.03-37.1,2.69-9.28,5.37-13.91,5.37-25.51s.16-25.36,0-26.67c-1.62-13.29,6.72,33.62,8.06,42.9,1.34,9.28,28.22,52.18,25.53,67.25-2.69,15.07,1.34,88.12-2.69,88.12s-20.15-8.12-20.15-8.12Z"/><path class="cls-10" d="m86,502.19h-13.44s-1.35-10.44-6.72-27.83c-5.37-17.39-18.81-19.71-18.81-26.66s-6.72-35.94-9.41-45.22c-2.69-9.28-16.12-24.35-16.12-27.82s-9.11-22.59-9.4-23.18c.49.51,13.58,14.12,21.49,25.5,7.07,10.18,18.3,23.94,25.47,33.42,1,1.32,1.92,2.55,2.74,3.68,6.71,9.28,24.19,88.12,24.19,88.12Z"/><path class="cls-10" d="m69.87,395.52c-1.34-5.8-4.03-37.1-5.37-51.02s-5.37-27.83-2.69-42.9c2.69-15.07,10.75-46.38,10.75-46.38,0,0-6.72,35.94-5.37,38.26s1.34,40.58,2.69,46.38c1.34,5.8,13.44,47.54,16.12,51.02,2.69,3.48,9.75,134.13,9.75,134.13l-25.88-129.49Z"/><path class="cls-11" d="m66.94,370.6c4.99,10.06,9.97,20.95,14.96,29.55,2.94,5.07,5.74,17.72,8.22,32.71,0,0,0,.01,0,.03,5.43,33.02,9.24,77.41,9.24,77.41,0,0-1.9.41-4.4.71-.63.08-1.3.14-1.98.2l-26.05-140.61Z"/><path class="cls-11" d="m86,502.19h-12.04c-4.55-19.78-11.89-70.26-14.89-91.8,1,1.32,1.92,2.55,2.74,3.68,6.71,9.28,24.19,88.12,24.19,88.12Z"/><path class="cls-10" d="m0,295.8s26.87,26.67,26.87,31.31,9.41,22.03,13.44,28.99,20.15,34.78,21.5,45.22c1.34,10.44,14.78,106.67,18.81,108.99,4.03,2.32,14.78,0,14.78,0,0,0-8.06-93.92-17.47-110.15-9.41-16.23-18.81-40.58-28.22-52.18-9.41-11.59-36.28-51.02-49.72-52.18Z"/><polygon class="cls-1" points="170.54 467.15 155.35 602.86 46.65 602.86 32.58 466.12 170.54 467.15"/></g><g><path class="cls-6" d="m663.42,343.62v235.55c0,13.03-10.66,23.7-23.7,23.7h-351.67c-8.22,0-15.5-4.24-19.75-10.65-2.49-3.75-3.94-8.23-3.94-13.04v-235.55c0-13.03,10.66-23.69,23.7-23.69h351.67c4.96,0,9.58,1.55,13.4,4.18,6.21,4.28,10.3,11.44,10.3,19.51Z"/><circle class="cls-5" cx="463.89" cy="461.39" r="37.73"/><circle class="cls-2" cx="463.89" cy="461.39" r="30.36"/><path class="cls-7" d="m663.42,343.62v235.55c0,13.03-10.66,23.7-23.7,23.7h-351.67c-8.22,0-15.5-4.24-19.75-10.65,134.14-70.26,320.27-216.23,384.83-268.11,6.21,4.28,10.3,11.44,10.3,19.51Z"/></g></g></g></g></svg>