<?xml version="1.0" encoding="UTF-8"?><svg id="_Слой_1" xmlns="http://www.w3.org/2000/svg" viewBox="0 0 224.97 753.7"><defs><style>.cls-1{fill:#595959;}</style></defs><g><path class="cls-1" d="m81.57,651.23c-5.72-4.57-14.84-4.13-20.22,1.03-5.1,4.9,5.65,22.74,5.76,26.42.69,22.99,1.53,45.97,2.31,68.95.12,3.58-.81,5.19-3.35,5.86-2.58.68-4.48-.34-6.48-3.49-19.44-30.68-38.87-61.36-58.31-92.04-1.95-3.08-1.77-4.6.95-7.08,11.86-10.83,19.74-23.72,25.13-37.87,1.23-3.24,2.19-6.56,3.25-9.84.95-2.95,2.35-3.94,5.85-3.95,23.67-.03,47.33-.04,71-.05,3.55,0,5.02,1,5.92,4.1,2.82,9.68,6.7,19,12.16,27.79,4.34,6.98,9.47,13.46,15.76,19.2,3.45,3.15,3.63,4.25,1.24,8.05-19.32,30.72-38.63,61.43-57.95,92.15-.16.26-.35.51-.53.77-1.33,1.95-3.3,2.78-5.44,2.31-2.29-.51-3.65-2.07-3.62-4.43.06-4.2.23-8.4.36-12.6.6-19.32,1.24-38.65,1.76-57.97.09-3.45,10.42-22.52,4.44-27.3Z"/><path class="cls-1" d="m29.16,548.63l86.52.06c2.17,0,3.94,1.57,3.93,3.47l-.1,29.96c0,1.91-1.79,3.47-3.96,3.47l-86.52-.06c-2.17,0-3.94-1.57-3.93-3.47l.1-29.96c0-1.91,1.79-3.47,3.96-3.47Z"/></g><path class="cls-1" d="m224.97,0v10.75c-15.51,8.95-29.41,19.45-41.63,31.44-23.07,22.66-40.33,50.84-51.32,83.78-9.67,29-14.45,61.42-14.19,96.35.22,30.14,4.31,62.13,11.84,92.51,10.12,40.81,13.59,79.13,10.33,113.89-2.62,27.95-9.58,53.67-20.68,76.46-19.02,39.05-43.42,55.8-44.44,56.49l-5.24-7.78c.05-.03,5.96-4.08,14-12.66,7.4-7.9,18.2-21.38,27.53-40.72,10.51-21.76,17.08-46.36,19.54-73.12,3.09-33.58-.32-70.7-10.14-110.3-7.7-31.08-11.9-63.83-12.12-94.7-.26-35.97,4.68-69.41,14.67-99.39,11.46-34.36,29.51-63.8,53.64-87.51,14-13.75,30.11-25.61,48.19-35.51Z"/></svg>