<?xml version="1.0" encoding="UTF-8"?><svg id="_Слой_1" xmlns="http://www.w3.org/2000/svg" viewBox="0 0 244 859.4"><defs><style>.cls-1{fill:#595959;}</style></defs><path class="cls-1" d="m244,0v12.26c-17.68,10.21-33.54,22.18-47.47,35.85-26.3,25.83-45.99,57.97-58.51,95.53-11.03,33.06-16.47,70.03-16.18,109.87.25,34.37,4.92,70.85,13.5,105.49,11.53,46.54,15.5,90.23,11.78,129.86-2.99,31.87-10.92,61.2-23.58,87.18-21.69,44.53-49.5,63.62-50.68,64.42l-5.98-8.87c.06-.04,6.79-4.65,15.96-14.43,8.44-9.01,20.75-24.38,31.4-46.44,11.98-24.81,19.48-52.86,22.29-83.38,3.52-38.29-.37-80.61-11.56-125.77-8.79-35.44-13.56-72.79-13.82-107.98-.3-41.01,5.33-79.14,16.73-113.33,13.07-39.18,33.64-72.75,61.17-99.78,15.97-15.68,34.33-29.21,54.95-40.49Z"/><g><rect class="cls-1" x="9.29" y="625.55" width="121.73" height="31.42" rx="8.5" ry="8.5" transform="translate(140.31 1282.52) rotate(180)"/><path class="cls-1" d="m2.07,752.55c9.36,11.37,34.25,42.85,40.59,63.46,6.23,20.24,9.37,30.26,10.4,39.57.24,2.18,2.08,3.82,4.27,3.82h3.6c2.38,0,4.3-1.93,4.3-4.3v-108.79l-1.65-2.2c-4.89-6.51-4.43-15.63.87-21.4,1.3-1.41,3.15-2.18,5.06-2.18h0c1.9,0,3.74.76,5.04,2.15,5.37,5.77,6.06,14.9,1.16,21.43l-1.65,2.2v108.79c0,2.38,1.93,4.3,4.3,4.3h3.6c2.19,0,4.03-1.64,4.27-3.82,1.03-9.31,4.18-19.33,10.4-39.57,6.34-20.61,31.23-52.09,40.59-63.46,2.19-2.65,2.69-6.31,1.3-9.46l-33.25-75.26c-1.07-2.43-3.48-3.99-6.13-3.99h-59.01c-2.65,0-5.06,1.57-6.13,3.99L.78,743.09c-1.39,3.15-.89,6.8,1.3,9.46Z"/></g></svg>