<?xml version="1.0" encoding="UTF-8"?><svg id="_Слой_1" xmlns="http://www.w3.org/2000/svg" viewBox="0 0 753.01 238"><defs><style>.cls-1{fill:#595959;}</style></defs><g><path class="cls-1" d="m122.53,40.25c0,22.54,23.44,39.9,23.44,67.8,0,22.72-19.86,42.22-46.87,42.22-29.88,0-53.31-19.86-53.31-55.28,0-8.77,3.22-11.99,7.87-11.99,3.76,0,6.8,1.79,9.66,4.65,8.77,8.59,24.15,16.46,38.64,17.89,2.33.36,3.76,2.33,3.58,4.47-.36,2.5-2.5,4.29-5.01,3.94-16.28-2.15-34.35-10.38-44.01-20.57-.36.36-.54,1.07-.54,1.79,0,29.88,19.32,46.87,43.12,46.87,22.36,0,35.96-15.92,35.96-33.63,0-24.87-22.72-41.86-22.72-67.98,0-20.4,17.89-35.42,38.82-35.42,5.9,0,11.09,1.07,15.56,3.04,8.23-5.01,17-8.05,22.9-8.05,3.04,0,4.11,1.25,4.11,3.04,0,2.15-1.07,3.22-5.01,3.58-3.76.54-9.48,2.5-15.21,5.72,5.19,4.65,8.05,11.09,8.05,18.78,0,15.92-10.38,26.84-22.18,26.84-9.84,0-16.46-6.8-16.46-17.53s6.98-19.68,15.92-27.01c-2.33-.54-5.19-.89-8.05-.89-15.03,0-28.27,11.63-28.27,27.73Zm43.83-23.26c-8.05,6.08-14.49,14.31-14.49,23.44,0,6.8,3.22,9.84,7.69,9.84,7.34,0,13.24-9.3,13.24-18.78,0-6.26-2.33-11.27-6.44-14.49Z"/><path class="cls-1" d="m191.43,130.24c.89-1.61,1.97-2.15,2.86-2.15,1.43,0,2.86,1.25,2.86,3.04,0,5.01-8.77,15.92-19.14,15.92-10.91,0-17.89-6.8-17.89-20.04,0-11.27,7.16-30.41,15.56-48.66h-8.41c-2.86,0-4.65-1.07-4.65-3.58,0-2.33,1.79-3.4,4.65-3.4h11.81c3.22-6.62,6.62-13.24,9.66-18.96,5.55-10.73,8.41-15.21,11.09-15.21,3.04,0,4.83,1.79,4.83,4.29,0,3.04-2.68,8.41-7.69,16.46l-6.8,13.42h10.2c2.86,0,4.47,1.43,4.47,3.22,0,2.5-1.79,3.76-4.47,3.76h-13.6c-8.95,18.96-16.82,38.46-16.82,49.91,0,8.23,3.94,11.63,9.12,11.63,4.83,0,9.3-4.47,12.34-9.66Z"/><path class="cls-1" d="m281.82,130.24c.89-1.61,1.97-2.15,2.86-2.15,1.43,0,2.86,1.25,2.86,3.04,0,5.01-8.41,15.92-18.25,15.92-9.3,0-17.17-6.44-17.17-18.61,0-.89,0-1.61.18-2.33-8.59,11.81-18.78,20.93-29.52,20.93-11.99,0-20.57-7.87-20.57-22.18,0-26.48,27.37-53.49,49.38-53.49,8.05,0,14.31,2.86,17.71,8.77,1.61-5.37,4.83-8.77,7.69-8.77,3.04,0,4.83,1.79,4.83,4.29,0,3.04-3.04,8.41-8.05,16.46-5.55,11.99-11.99,26.3-11.99,36.32,0,7.87,3.4,11.45,8.59,11.45,4.47,0,8.41-4.65,11.45-9.66Zm-31.31-12.17c6.44-9.66,10.56-18.25,15.03-29.52-.89-6.08-5.72-9.84-14.13-9.84-16.64,0-39,24.87-39,46.87,0,9.12,5.19,13.95,11.27,13.95,9.12,0,18.43-9.3,26.84-21.47Z"/><path class="cls-1" d="m273.58,229.25c0-12.74,5.66-57.46,13.55-80.92,9.91-29.32,23.86-60.47,36.2-84.33,8.9-17.59,16.99-22.85,23.66-22.85,8.49,0,14.16,5.66,14.16,16.78,0,27.7-28.31,67.54-60.47,82.51l-4.04,11.32c-7.48,22.25-12.74,65.55-12.74,77.48,0,8.9-10.31,14.16-10.31,0Zm31.34-100.13c26.49-16.58,46.92-50.76,46.92-71.18,0-6.27-2.22-8.49-5.06-8.49s-6.47,3.03-14.36,18.81c-9.3,18.4-19.01,39.84-27.5,60.87Z"/><path class="cls-1" d="m395.33,71.38c10.73,0,17,5.37,17,14.85,0,14.49-22.9,27.91-51.88,30.59-.18,1.97-.36,4.11-.36,6.08,0,10.56,6.98,16.28,17.17,16.28,8.59,0,16.64-5.37,20.93-12.52.89-1.61,1.97-2.15,3.04-2.15,1.61,0,3.22,1.43,3.22,3.58,0,5.72-12.7,18.96-28.8,18.96s-25.76-8.77-25.76-24.33c0-29.52,26.3-51.35,45.44-51.35Zm-33.1,38.11c23.08-2.86,40.43-13.6,40.43-24.33,0-3.94-3.04-6.44-7.51-6.44-10.91,0-27.19,12.88-32.92,30.77Z"/><path class="cls-1" d="m464.54,71.38c10.73,0,17,5.37,17,14.85,0,14.49-22.9,27.91-51.88,30.59-.18,1.97-.36,4.11-.36,6.08,0,10.56,6.98,16.28,17.17,16.28,8.59,0,16.64-5.37,20.93-12.52.89-1.61,1.97-2.15,3.04-2.15,1.61,0,3.22,1.43,3.22,3.58,0,5.72-12.7,18.96-28.8,18.96s-25.76-8.77-25.76-24.33c0-29.52,26.3-51.35,45.44-51.35Zm-33.1,38.11c23.08-2.86,40.43-13.6,40.43-24.33,0-3.94-3.04-6.44-7.51-6.44-10.91,0-27.19,12.88-32.92,30.77Z"/><path class="cls-1" d="m508.26,71.38c3.04,0,4.83,1.79,4.83,4.29,0,3.04-2.68,8.41-7.69,16.46-4.83,10.02-9.12,23.08-9.12,31.67,0,11.27,3.94,15.92,8.95,15.92,12.34,0,37.03-33.63,37.03-55.82,0-3.94-1.43-5.9-1.43-8.41,0-2.68,1.97-4.11,5.19-4.11s5.9,4.29,5.9,10.2c0,27.19-29.52,65.48-48.12,65.48-10.56,0-17.35-8.05-17.35-23.44,0-10.2,5.55-25.94,10.73-36.85,5.19-10.91,8.41-15.39,11.09-15.39Z"/><path class="cls-1" d="m631.42,130.24c.89-1.61,1.97-2.15,2.86-2.15,1.43,0,2.86,1.25,2.86,3.04,0,5.01-8.41,15.92-18.25,15.92-9.3,0-17.17-6.44-17.17-18.61,0-.89,0-1.61.18-2.33-8.59,11.81-18.78,20.93-29.52,20.93-11.99,0-20.57-7.87-20.57-22.18,0-26.48,27.37-53.49,49.38-53.49,8.05,0,14.31,2.86,17.71,8.77,1.61-5.37,4.83-8.77,7.69-8.77,3.04,0,4.83,1.79,4.83,4.29,0,3.04-3.04,8.41-8.05,16.46-5.55,11.99-11.99,26.3-11.99,36.32,0,7.87,3.4,11.45,8.59,11.45,4.47,0,8.41-4.65,11.45-9.66Zm-31.31-12.17c6.44-9.66,10.56-18.25,15.03-29.52-.89-6.08-5.72-9.84-14.13-9.84-16.64,0-39,24.87-39,46.87,0,9.12,5.19,13.95,11.27,13.95,9.12,0,18.43-9.3,26.84-21.47Z"/></g><path class="cls-1" d="m748.32,152.58H4.69c-2.59,0-4.69-2.1-4.69-4.69s2.1-4.69,4.69-4.69h743.63c2.59,0,4.69,2.1,4.69,4.69s-2.1,4.69-4.69,4.69Z"/></svg>