<?xml version="1.0" encoding="UTF-8"?><svg xmlns="http://www.w3.org/2000/svg" viewBox="0 0 948 303.94"><defs><style>.cls-1{fill:#f2f2f0;}.cls-2{fill:#fff;}.cls-3{fill:#edaf43;}.cls-4{fill:#bababa;}.cls-5,.cls-6{fill:#d6d6d6;}.cls-7{fill:#595959;}.cls-8{fill:#779c8f;}.cls-6{mix-blend-mode:multiply;opacity:.23;}.cls-9{isolation:isolate;}</style></defs><g class="cls-9"><g id="_Слой_1"><g><rect class="cls-1" width="948" height="303.94"/><g><g><path class="cls-7" d="m882.9,281.27v20c0,1.47-1.29,2.67-2.87,2.67h-121.4c-1.58,0-2.87-1.2-2.87-2.67v-20c0-1.45,1.25-2.63,2.8-2.67.02,0,.05,0,.07,0h121.4c1.58,0,2.87,1.2,2.87,2.67Z"/><rect class="cls-1" x="852.14" y="278.6" width="13.72" height="25.34"/><rect class="cls-1" x="867.89" y="278.6" width="3.09" height="25.34"/></g><g><rect class="cls-8" x="763.41" y="234.59" width="113.36" height="17.99" rx="5.47" ry="5.47" transform="translate(1640.19 487.18) rotate(180)"/><rect class="cls-1" x="836.36" y="234.57" width="12.3" height="18.01"/><rect class="cls-1" x="850.71" y="234.57" width="3.83" height="18.01"/></g><g><rect class="cls-3" x="747.7" y="254.43" width="148.63" height="20.41" rx="6.95" ry="6.95"/><rect class="cls-1" x="761.21" y="254.43" width="15.37" height="20.43"/><rect class="cls-1" x="780.1" y="254.43" width="2.69" height="20.43"/></g></g><g><path class="cls-8" d="m462.22,255.06c-1.3-2.25,3.91-42.22,1.3-54.04-2.61-11.82-4.24-43.4-4.24-43.4,0,0-3.59,33.83-4.89,37.21-1.3,3.38-3.26,33.77-2.61,38.84.65,5.07,4.34,20.4,4.34,20.4l6.1.99Z"/><path class="cls-8" d="m493.57,184.74c.29,2.8-9.89,22.51-11.54,25.51-.9,1.63-4.07,8.4-7.39,14.49-2.8,5.14-5.7,9.8-7.43,10.5-3.77,1.53-4.74-8.2-4.74-8.2,0,0,7.98-13.88,11.94-18.77.72-.89,1.46-1.87,2.19-2.92,4.9-6.95,9.95-16.81,13.38-23.62,3.77-7.52,4.19-10.06,4.19-10.06,0,0-.89,10.28-.59,13.08Z"/><path class="cls-1" d="m476.59,205.34c-.96,5.48-1.65,10.88-1.65,14.82,0,1.33-.11,2.88-.31,4.58-2.8,5.14-5.7,9.8-7.43,10.5-3.77,1.53-4.74-8.2-4.74-8.2,0,0,7.98-13.88,11.94-18.77.72-.89,1.46-1.87,2.19-2.92Z"/><path class="cls-8" d="m479.83,184.14c-1.96,6.19-6.52,25.89-6.52,36.02s-6.6,33.2-6.6,33.2l-10.36,6.77v-65.29c0-1.91,1.02-7.4,2.46-13.73,2.39-10.48,5.95-23.22,7.98-25.67,3.26-3.94,13.05-24.77,13.05-24.77-1.96,9.57,1.96,47.28,0,53.47Z"/><path class="cls-8" d="m460.14,260.57l-3.36-2.75-1.3-1.07-1.21-.99-6.52-5.33c-.81-1.75-1.07-33.66-.68-60.68.24-16.46.71-31.11,1.45-36.01,1.96-12.95,1.96-19.7,1.96-19.7,0,0,3.26,9.57,2.61,15.2-.49,4.28,2,21.13,3.66,31.12.52,3.15.97,5.61,1.21,6.78.84,4.09,1.8,52.79,2.09,68.55.06,3.07.09,4.89.09,4.89Z"/><path class="cls-1" d="m456.32,214.89c-1.18,6.62.31,36.26-.84,41.86l-7.73-6.32c-.81-1.75-1.07-33.66-.68-60.68,3.97,8.13,10.17,19.98,9.25,25.14Z"/><path class="cls-8" d="m443.3,255.06s-3.91-9.57-4.57-21.95c-.65-12.38-.65-23.08-1.3-27.02-.65-3.94-3.26-13.51-1.96-18.01,1.3-4.5,2.61-6.75,2.61-12.38s.08-12.31,0-12.95c-.79-6.45,3.26,16.32,3.91,20.83.65,4.5,13.7,25.33,12.39,32.65-1.3,7.32.65,42.78-1.3,42.78s-9.78-3.94-9.78-3.94Z"/><path class="cls-8" d="m438.73,255.06h-6.52s-.66-5.07-3.26-13.51c-2.61-8.44-9.13-9.57-9.13-12.95s-3.26-17.45-4.57-21.95c-1.3-4.5-7.83-11.82-7.83-13.51s-4.42-10.96-4.56-11.25c.24.25,6.59,6.86,10.43,12.38,3.43,4.94,8.88,11.62,12.37,16.22.49.64.93,1.24,1.33,1.79,3.26,4.5,11.74,42.78,11.74,42.78Z"/><path class="cls-8" d="m443.47,266.14l-1.46-7.28-11.11-55.58c-.31-1.35-.78-5.56-1.25-10.32-.51-5.15-1.02-10.93-1.36-14.44-.65-6.75-2.61-13.51-1.3-20.83,1.29-7.26,5.16-22.28,5.22-22.51-.05.24-3.26,17.45-2.61,18.57.65,1.13.65,19.7,1.3,22.52.65,2.81,6.52,23.08,7.83,24.77.63.82,1.76,16.05,2.75,31.57.63,9.76,1.2,19.64,1.57,26.12.26,4.55.41,7.43.41,7.43Z"/><path class="cls-1" d="m444.28,258.5s-.49.11-1.23.22c-.27.04-.58.09-.91.13-.04,0-.09.01-.13.02l-11.11-55.58c-.31-1.35-.78-5.56-1.25-10.32,2.05,4.21,4.1,8.53,6.14,12.07,1.43,2.46,2.79,8.6,3.99,15.88,0,0,0,0,0,.01.61,3.71,1.18,7.72,1.69,11.68,1.7,13.17,2.79,25.9,2.79,25.9Z"/><path class="cls-1" d="m438.73,255.06h-5.84c-2.21-9.6-5.77-34.11-7.23-44.57.49.64.93,1.24,1.33,1.79,3.26,4.5,11.74,42.78,11.74,42.78Z"/><path class="cls-8" d="m396.99,154.87s13.05,12.95,13.05,15.2,4.57,10.69,6.52,14.07c1.96,3.38,9.78,16.89,10.44,21.95.65,5.07,7.18,51.79,9.13,52.91s7.18,0,7.18,0c0,0-3.91-45.59-8.48-53.47-4.57-7.88-9.13-19.7-13.7-25.33-4.57-5.63-17.61-24.77-24.14-25.33Z"/><path class="cls-3" d="m479.78,238.05l-7.37,65.89h-52.78l-6.83-66.39h.06s0,.06,0,.06l66.92.44Z"/></g><g><path class="cls-5" d="m739.42,152.44v137.65c0,7.62-6.23,13.85-13.85,13.85h-205.51c-4.81,0-9.06-2.48-11.54-6.22-1.45-2.19-2.3-4.81-2.3-7.62v-137.65c0-7.62,6.23-13.85,13.85-13.85h205.51c2.9,0,5.6.9,7.83,2.44,3.63,2.5,6.02,6.69,6.02,11.4Z"/><circle class="cls-4" cx="622.82" cy="221.27" r="22.05"/><circle class="cls-2" cx="622.82" cy="221.27" r="17.74"/><path class="cls-6" d="m739.42,152.44v137.65c0,7.62-6.23,13.85-13.85,13.85h-205.51c-4.81,0-9.06-2.48-11.54-6.22,78.39-41.06,187.16-126.36,224.89-156.68,3.63,2.5,6.02,6.69,6.02,11.4Z"/></g><g><rect class="cls-7" x="805.26" y="225.31" width="45.23" height="5.73" rx="2.86" ry="2.86" transform="translate(1655.75 456.34) rotate(-180)"/><g><rect class="cls-7" x="751.39" y="72.76" width="42.8" height="2.83"/><rect class="cls-7" x="751.39" y="67.67" width="42.8" height="2.83"/></g><g><rect class="cls-7" x="829.35" y="140.7" width="3.95" height="81.91"/><rect class="cls-7" x="822.44" y="140.67" width="3.95" height="81.94"/></g><g><rect class="cls-7" x="811.84" y="73.95" width="3.13" height="64.77" transform="translate(76.89 467.55) rotate(-33.57)"/><rect class="cls-7" x="804.93" y="73.95" width="3.13" height="64.77" transform="translate(75.74 463.73) rotate(-33.57)"/></g><g><rect class="cls-3" x="686.4" y="88.69" width="11.1" height="3.97" transform="translate(-5.69 73.03) rotate(-6.02)"/><rect class="cls-3" x="700.92" y="113.46" width="8.85" height="3.97" transform="translate(199.05 619.92) rotate(-54.19)"/><rect class="cls-3" x="684.45" y="103.67" width="18.23" height="3.97" transform="translate(24.14 315.57) rotate(-26.07)"/><g><circle class="cls-3" cx="722.06" cy="89.77" r="16.29"/><circle class="cls-2" cx="723.6" cy="89.32" r="12.83"/><polygon class="cls-3" points="706.61 67.75 732.42 113.57 772.78 77.53 758.35 51.92 706.61 67.75"/></g></g></g></g></g></g></svg>