<?xml version="1.0" encoding="UTF-8"?><svg xmlns="http://www.w3.org/2000/svg" viewBox="0 0 875.76 442"><defs><style>.cls-1{fill:#f2f2f0;}.cls-2{fill:#fff;}.cls-3{fill:#edaf43;}.cls-4{fill:#bababa;}.cls-5,.cls-6{fill:#d6d6d6;}.cls-7{fill:#595959;}.cls-8{fill:#779c8f;}.cls-6{mix-blend-mode:multiply;opacity:.23;}.cls-9{isolation:isolate;}</style></defs><g class="cls-9"><g id="_Слой_1"><g><g><g><path class="cls-7" d="m852.2,402.24v35.08c0,2.57-2.26,4.68-5.03,4.68h-212.91c-2.77,0-5.03-2.11-5.03-4.68v-35.08c0-2.54,2.19-4.61,4.9-4.68.04,0,.09,0,.13,0h212.91c2.77,0,5.03,2.11,5.03,4.68Z"/><rect class="cls-1" x="798.26" y="397.56" width="24.07" height="44.44"/><rect class="cls-1" x="825.88" y="397.56" width="5.42" height="44.44"/></g><g><rect class="cls-8" x="642.65" y="320.38" width="198.81" height="31.55" rx="5.47" ry="5.47" transform="translate(1484.1 672.3) rotate(180)"/><rect class="cls-1" x="770.58" y="320.34" width="21.57" height="31.59"/><rect class="cls-1" x="795.74" y="320.34" width="6.71" height="31.59"/></g><g><rect class="cls-3" x="615.09" y="355.17" width="260.67" height="35.79" rx="6.95" ry="6.95"/><rect class="cls-1" x="638.77" y="355.17" width="26.95" height="35.84"/><rect class="cls-1" x="671.9" y="355.17" width="4.72" height="35.84"/></g></g><g><path class="cls-8" d="m114.4,356.28c-2.29-3.95,6.86-74.04,2.29-94.77-4.58-20.73-7.43-76.11-7.43-76.11,0,0-6.3,59.33-8.58,65.25-2.29,5.92-5.72,59.23-4.58,68.12,1.14,8.88,7.61,35.78,7.61,35.78l10.69,1.73Z"/><path class="cls-8" d="m169.38,232.94c.52,4.91-17.35,39.47-20.24,44.74-1.57,2.86-7.14,14.73-12.97,25.42-4.91,9.01-10,17.18-13.03,18.41-6.62,2.68-8.32-14.39-8.32-14.39,0,0,14-24.35,20.94-32.92,1.27-1.57,2.56-3.29,3.85-5.12,8.59-12.19,17.46-29.48,23.46-41.43,6.62-13.18,7.34-17.65,7.34-17.65,0,0-1.55,18.03-1.04,22.94Z"/><path class="cls-1" d="m139.61,269.08c-1.68,9.62-2.9,19.08-2.9,25.99,0,2.33-.2,5.06-.55,8.03-4.91,9.01-10,17.18-13.03,18.41-6.62,2.68-8.32-14.39-8.32-14.39,0,0,14-24.35,20.94-32.92,1.27-1.57,2.56-3.29,3.85-5.12Z"/><path class="cls-8" d="m145.29,231.89c-3.43,10.86-11.44,45.41-11.44,63.18s-11.58,58.23-11.58,58.23l-18.17,11.87v-114.51c0-3.35,1.79-12.98,4.31-24.08,4.19-18.37,10.43-40.72,14-45.03,5.72-6.91,22.88-43.44,22.88-43.44-3.43,16.78,3.43,82.93,0,93.78Z"/><path class="cls-8" d="m110.76,365.94l-5.89-4.82-2.29-1.87-2.12-1.73-11.44-9.35c-1.42-3.06-1.88-59.04-1.2-106.43.41-28.87,1.25-54.56,2.55-63.16,3.43-22.7,3.43-34.55,3.43-34.55,0,0,5.72,16.78,4.58,26.65-.87,7.51,3.51,37.06,6.43,54.57.92,5.52,1.7,9.84,2.12,11.89,1.47,7.17,3.16,92.59,3.67,120.22.1,5.38.16,8.57.16,8.57Z"/><path class="cls-1" d="m104.06,285.83c-2.07,11.61.54,63.6-1.47,73.42l-13.56-11.08c-1.42-3.06-1.88-59.04-1.2-106.43,6.97,14.26,17.84,35.04,16.23,44.09Z"/><path class="cls-8" d="m81.23,356.28s-6.86-16.78-8.01-38.5c-1.14-21.72-1.14-40.47-2.29-47.39-1.14-6.91-5.72-23.69-3.43-31.59,2.29-7.9,4.58-11.85,4.58-21.72s.14-21.59,0-22.71c-1.38-11.32,5.72,28.63,6.86,36.53,1.14,7.9,24.02,44.42,21.74,57.26-2.29,12.83,1.14,75.03-2.29,75.03s-17.16-6.91-17.16-6.91Z"/><path class="cls-8" d="m73.22,356.28h-11.44s-1.15-8.89-5.72-23.7c-4.57-14.8-16.01-16.78-16.01-22.7s-5.72-30.6-8.01-38.5c-2.29-7.9-13.73-20.73-13.73-23.69s-7.76-19.23-8-19.74c.42.43,11.56,12.03,18.3,21.71,6.02,8.67,15.58,20.38,21.69,28.45.85,1.12,1.64,2.17,2.33,3.13,5.72,7.9,20.59,75.03,20.59,75.03Z"/><path class="cls-8" d="m81.52,375.71l-2.55-12.77-19.48-97.48c-.55-2.37-1.36-9.76-2.19-18.1-.89-9.03-1.79-19.18-2.39-25.33-1.14-11.85-4.58-23.69-2.29-36.53,2.27-12.73,9.04-39.07,9.15-39.48-.08.43-5.71,30.61-4.57,32.57,1.14,1.97,1.14,34.55,2.29,39.49,1.14,4.94,11.44,40.47,13.73,43.44,1.11,1.43,3.08,28.14,4.83,55.37,1.1,17.12,2.11,34.44,2.75,45.81.45,7.97.72,13.02.72,13.02Z"/><path class="cls-1" d="m82.95,362.3s-.86.19-2.15.39c-.48.07-1.02.15-1.6.22-.08,0-.15.02-.23.03l-19.48-97.48c-.55-2.37-1.36-9.76-2.19-18.1,3.59,7.38,7.18,14.96,10.78,21.16,2.5,4.31,4.89,15.08,7,27.85,0,0,0,.01,0,.02,1.07,6.51,2.07,13.53,2.97,20.49,2.99,23.1,4.9,45.42,4.9,45.42Z"/><path class="cls-1" d="m73.22,356.28h-10.25c-3.87-16.84-10.12-59.82-12.68-78.16.85,1.12,1.64,2.17,2.33,3.13,5.72,7.9,20.59,75.03,20.59,75.03Z"/><path class="cls-8" d="m0,180.56s22.88,22.71,22.88,26.65,8.01,18.76,11.44,24.68c3.43,5.92,17.16,29.62,18.3,38.5,1.14,8.88,12.58,90.82,16.02,92.8,3.43,1.97,12.58,0,12.58,0,0,0-6.86-79.96-14.87-93.78-8.01-13.82-16.02-34.55-24.02-44.42-8.01-9.87-30.89-43.44-42.33-44.42Z"/><path class="cls-3" d="m145.21,326.45l-12.93,115.55H39.72l-11.97-116.43h.1s0,.11,0,.11l117.37.77Z"/></g><g><path class="cls-5" d="m600.57,176.3v241.42c0,13.36-10.93,24.29-24.29,24.29H215.85c-8.43,0-15.89-4.35-20.25-10.92-2.55-3.84-4.04-8.44-4.04-13.37v-241.42c0-13.36,10.93-24.28,24.29-24.28h360.43c5.09,0,9.82,1.59,13.73,4.28,6.36,4.39,10.55,11.73,10.55,20Z"/><circle class="cls-4" cx="396.07" cy="297.01" r="38.67"/><circle class="cls-2" cx="396.07" cy="297.01" r="31.12"/><path class="cls-6" d="m600.57,176.3v241.42c0,13.36-10.93,24.29-24.29,24.29H215.85c-8.43,0-15.89-4.35-20.25-10.92,137.48-72.01,328.24-221.61,394.41-274.79,6.36,4.39,10.55,11.73,10.55,20Z"/></g><g><rect class="cls-7" x="716.03" y="304.09" width="79.33" height="10.05" rx="5.02" ry="5.02" transform="translate(1511.39 618.23) rotate(-180)"/><g><rect class="cls-7" x="621.55" y="36.55" width="75.06" height="4.97"/><rect class="cls-7" x="621.55" y="27.62" width="75.06" height="4.97"/></g><g><rect class="cls-7" x="758.29" y="155.71" width="6.94" height="143.66"/><rect class="cls-7" x="746.17" y="155.66" width="6.94" height="143.71"/></g><g><rect class="cls-7" x="727.58" y="38.63" width="5.48" height="113.59" transform="translate(69.06 419.78) rotate(-33.57)"/><rect class="cls-7" x="715.46" y="38.63" width="5.48" height="113.59" transform="translate(67.04 413.08) rotate(-33.57)"/></g><g><rect class="cls-3" x="507.58" y="64.5" width="19.46" height="6.96" transform="translate(-4.28 54.6) rotate(-6.02)"/><rect class="cls-3" x="533.04" y="107.93" width="15.52" height="6.96" transform="translate(134.04 484.8) rotate(-54.19)"/><rect class="cls-3" x="504.15" y="90.76" width="31.98" height="6.96" transform="translate(11.51 238.19) rotate(-26.07)"/><g><circle class="cls-3" cx="570.12" cy="66.39" r="28.57"/><circle class="cls-2" cx="572.81" cy="65.6" r="22.5"/><polygon class="cls-3" points="543.02 27.77 588.29 108.13 659.07 44.92 633.76 0 543.02 27.77"/></g></g></g></g></g></g></svg>